<svg version="1.1" id="Layer_1" xmlns="http://www.w3.org/2000/svg" xmlns:xlink="http://www.w3.org/1999/xlink" x="0px" y="0px"
	 width="100%" viewBox="0 0 1024 1024" enable-background="new 0 0 1024 1024" xml:space="preserve">
<path fill="#000000" opacity="1.000000" stroke="none" 
	d="
M560.798828,675.798157 
	C545.959412,690.425049 531.268799,704.701660 516.857239,719.254639 
	C512.960266,723.189941 510.668335,721.643372 507.536255,718.493225 
	C480.758057,691.560364 454.234528,664.359192 426.914917,637.984009 
	C399.876099,611.879822 380.703949,581.416992 371.193146,544.979004 
	C366.012207,525.129578 365.047577,505.051361 366.411987,484.597351 
	C368.624115,451.435181 379.908813,421.720062 398.229675,394.342804 
	C408.695770,378.703125 422.330658,365.930115 435.498474,352.727325 
	C460.201508,327.958710 484.984802,303.269409 509.548309,278.363342 
	C512.568665,275.300842 514.033142,275.925201 516.640442,278.563690 
	C547.080566,309.368134 577.608459,340.085999 608.138977,370.801025 
	C629.596191,392.387909 644.363831,417.782959 652.580505,447.140259 
	C658.192932,467.192810 661.190247,487.496002 660.083862,508.288452 
	C658.378784,540.331665 649.117188,570.035278 632.014954,597.278564 
	C618.237305,619.225708 599.511963,636.820740 581.578552,655.118103 
	C574.821350,662.012390 567.899353,668.745239 560.798828,675.798157 
M469.155792,480.615479 
	C495.593506,466.698944 516.411560,447.170166 528.658630,419.079010 
	C530.339294,420.749207 530.127686,421.574005 529.956177,422.383118 
	C526.145386,440.360474 517.225830,455.462402 504.284302,468.366211 
	C490.940521,481.671112 475.051453,491.398651 459.091522,501.086426 
	C450.113800,506.535980 441.291290,512.293335 435.280182,521.285339 
	C432.983887,524.720459 432.087036,528.242493 432.961243,532.585327 
	C436.208618,548.717102 443.300476,563.098083 452.229919,576.690613 
	C454.648560,580.372314 456.823425,584.403687 461.043030,586.281982 
	C463.462921,585.192871 463.627930,583.032288 464.265747,581.194580 
	C468.282593,569.621521 473.916901,558.942383 481.242706,549.088867 
	C490.116394,537.153503 500.243500,526.352966 510.556824,515.698669 
	C526.741943,498.978546 541.637573,481.348053 550.385498,459.362305 
	C550.892456,458.088226 551.193481,456.358551 553.209351,456.529205 
	C554.490845,457.750610 553.785828,459.043365 553.515625,460.300385 
	C550.617920,473.780609 545.303284,486.269287 538.381653,498.166626 
	C527.874390,516.227173 513.944702,531.817993 502.107971,548.914917 
	C492.556946,562.710388 484.253387,577.070312 481.723145,594.015747 
	C480.343872,603.252930 481.166412,611.873901 488.305298,619.029602 
	C495.124847,625.865112 501.626007,633.020996 508.190094,640.107422 
	C511.248779,643.409485 513.636353,643.284851 516.814514,639.879028 
	C530.335388,625.389648 544.228271,611.247620 557.756653,596.765198 
	C587.345947,565.089172 601.613525,527.587463 598.531555,484.237793 
	C596.616455,457.300537 587.452454,432.614594 571.349060,410.706726 
	C555.272644,388.835754 534.960510,370.974182 515.826050,351.995544 
	C513.673706,349.860779 511.956116,350.177490 509.873322,352.147064 
	C491.979095,369.068451 473.559692,385.473358 458.268799,404.936401 
	C452.297607,412.536835 446.737976,420.447876 442.200867,428.978607 
	C434.138092,444.138336 429.463715,460.426666 427.545654,477.431824 
	C426.952820,482.687744 425.779327,487.976105 426.394165,493.335419 
	C426.960602,498.272705 428.220520,499.140198 432.855225,497.793213 
	C434.604065,497.284943 436.300751,496.572052 437.981476,495.858856 
	C448.418518,491.430298 458.421753,486.109741 469.155792,480.615479 
z"/>
<path fill="#000000" opacity="1.000000" stroke="none" 
	d="
M708.980530,397.202148 
	C732.557068,464.620789 704.035767,530.864990 670.833496,559.405334 
	C669.340454,557.217896 670.693665,555.174377 671.147095,553.264343 
	C675.625000,534.400024 678.562744,515.359863 677.695435,495.902069 
	C676.308838,464.793365 668.281006,435.606537 652.989380,408.338257 
	C641.524841,387.894623 626.135986,370.695770 609.852539,354.205078 
	C579.770203,323.740021 549.497253,293.463104 519.251709,263.159607 
	C513.206421,257.102722 512.942383,257.053345 506.982330,263.043427 
	C481.253723,288.901398 454.861145,314.095947 429.732849,340.555267 
	C419.643219,351.179382 408.687042,361.023315 399.076447,372.051270 
	C373.241486,401.696198 356.088928,435.777405 350.554993,474.937195 
	C346.720978,502.067810 348.491547,529.086548 355.938660,555.608765 
	C356.444519,557.410339 357.776398,559.214355 356.583344,561.855347 
	C350.249512,555.647034 344.631256,549.230042 339.558258,542.293518 
	C325.068604,522.480957 315.358490,500.480042 310.774292,476.461212 
	C306.109283,452.018951 307.928314,427.820251 315.577087,404.023499 
	C323.578613,379.129303 336.538727,357.426086 355.052612,338.882629 
	C383.177368,310.713013 411.002838,282.244843 439.000793,253.948441 
	C461.846252,230.859451 484.759216,207.837326 507.639740,184.783051 
	C512.973022,179.409271 512.981628,179.391891 518.251282,184.863922 
	C547.252991,214.979340 577.456848,243.900635 606.730957,273.736847 
	C631.806396,299.293793 658.257874,323.505737 682.026733,350.338318 
	C694.118591,363.988678 702.425964,379.879181 708.980530,397.202148 
z"/>
<path fill="#000000" opacity="1.000000" stroke="none" 
	d="
M386.793457,826.782959 
	C377.975952,836.398987 366.693329,838.612183 354.769012,838.946716 
	C347.278687,839.156921 339.777924,838.991150 332.287170,839.192200 
	C328.693695,839.288635 326.995972,837.811340 327.003418,834.266418 
	C327.051758,811.281555 327.116333,788.296631 327.129150,765.311768 
	C327.131500,761.142395 328.840027,759.470215 333.200958,759.629944 
	C341.686279,759.940979 350.229126,759.234558 358.677643,759.877075 
	C375.161102,761.130615 388.190399,768.415100 394.523834,784.349670 
	C400.618958,799.684631 398.391571,814.039246 386.793457,826.782959 
M344.087372,784.548706 
	C343.999847,796.696899 343.984283,808.846436 343.769775,820.992371 
	C343.721436,823.730774 344.750977,824.587708 347.276154,824.388184 
	C350.757141,824.113098 354.243713,823.892883 357.731476,823.722351 
	C370.795197,823.083801 378.907104,814.853455 380.562347,800.517151 
	C381.886322,789.049988 374.918060,778.853760 363.426056,775.601685 
	C360.220459,774.694641 356.914276,774.352600 353.557861,774.307556 
	C344.036530,774.179932 344.037170,774.132568 344.087372,784.548706 
z"/>
<path fill="#000000" opacity="1.000000" stroke="none" 
	d="
M227.717529,799.962646 
	C228.783386,782.119507 236.153809,768.501404 252.668335,761.752258 
	C268.889526,755.122986 284.081421,758.139832 297.206268,769.931641 
	C308.751495,780.304199 312.439575,798.233765 306.463837,813.714111 
	C300.446045,829.303345 285.867462,840.030029 270.372803,840.269348 
	C246.876099,840.632263 228.659821,823.617126 227.717529,799.962646 
M247.128311,810.280334 
	C252.649719,821.021240 261.442139,826.033325 271.552948,824.203552 
	C285.295441,821.716553 291.841217,812.771240 291.943970,797.377136 
	C292.068390,778.730835 273.166748,769.439087 257.903961,776.301392 
	C245.824615,781.732422 241.597076,794.872375 247.128311,810.280334 
z"/>
<path fill="#000000" opacity="1.000000" stroke="none" 
	d="
M662.878906,775.783997 
	C662.848755,781.084106 662.848755,786.038147 662.848755,791.012878 
	C666.499268,792.290222 669.838501,791.647034 673.109375,791.676636 
	C681.102478,791.748901 689.099609,791.808411 697.089294,791.622375 
	C700.784485,791.536316 702.009888,793.023438 702.120361,796.601990 
	C702.420715,806.332520 702.540833,806.277405 692.819275,806.135681 
	C684.827698,806.019165 676.826172,806.243530 668.844177,805.931335 
	C664.027527,805.743042 661.429504,807.065491 662.306580,812.341431 
	C662.387268,812.826843 662.306335,813.338745 662.303589,813.838379 
	C662.245972,824.473389 662.245667,824.532776 673.218567,824.611572 
	C683.993774,824.688965 694.769958,824.628479 705.655640,824.628479 
	C706.624573,828.607544 706.169861,832.250427 705.982605,835.864624 
	C705.835632,838.702026 703.871094,839.241699 701.428772,839.236511 
	C684.609314,839.200989 667.789673,839.191345 650.970215,839.236084 
	C648.055420,839.243835 646.711670,838.080688 646.719849,835.089172 
	C646.783875,811.608337 646.804749,788.127380 646.801453,764.646423 
	C646.800964,761.141663 648.185791,759.629272 651.907043,759.669128 
	C668.392944,759.845947 684.881592,759.872742 701.368347,759.786194 
	C705.039490,759.766907 706.284851,761.081909 706.293335,764.757080 
	C706.315613,774.441223 706.461182,774.395264 696.879639,774.316833 
	C687.054260,774.236389 677.227844,774.225281 667.402222,774.268433 
	C665.862549,774.275208 663.995667,773.501892 662.878906,775.783997 
z"/>
<path fill="#000000" opacity="1.000000" stroke="none" 
	d="
M627.553711,812.710205 
	C628.807251,822.413513 623.417053,831.827148 613.873901,836.440308 
	C601.328491,842.504639 588.980835,840.447937 576.839905,834.950684 
	C576.088257,834.610291 575.421814,834.081360 574.716431,833.638855 
	C564.862427,827.457031 564.945374,827.264893 571.989502,818.104004 
	C574.300110,815.099121 575.724854,815.316711 578.206360,817.733704 
	C584.535950,823.898621 592.331665,826.183350 601.067139,825.726501 
	C603.322571,825.608521 605.314026,824.908264 607.168091,823.767029 
	C613.219482,820.041992 613.088074,813.160278 606.785950,809.894287 
	C602.330017,807.584961 597.384827,806.602539 592.547729,805.362305 
	C589.816772,804.662109 587.052612,803.974976 584.445740,802.927551 
	C572.919067,798.296814 567.522827,790.269958 568.968445,780.174072 
	C570.572021,768.974854 579.190613,760.438293 590.489563,759.073425 
	C601.465698,757.747559 611.589294,760.481934 621.191895,765.725586 
	C623.736389,767.115173 624.535339,768.754517 623.244629,771.361938 
	C621.501831,774.882446 620.802734,778.981812 617.445068,781.927917 
	C612.117859,777.436096 606.415466,773.837708 599.463989,772.705322 
	C597.454773,772.377991 595.507690,772.272217 593.541077,772.866760 
	C589.334412,774.138428 585.571655,776.087341 585.344177,781.055908 
	C585.122009,785.910217 588.794800,788.047607 592.678650,789.405457 
	C599.731567,791.871338 607.310608,792.676453 614.084656,796.063965 
	C620.945496,799.494934 626.198608,804.260803 627.553711,812.710205 
z"/>
<path fill="#000000" opacity="1.000000" stroke="none" 
	d="
M497.884857,797.112305 
	C491.579529,789.904785 489.885895,782.105774 493.846619,773.686096 
	C498.215179,764.399536 506.323242,760.080139 516.100952,758.884277 
	C526.953247,757.557068 536.830444,760.679382 546.061584,766.323547 
	C548.746033,767.964844 548.795105,769.434937 547.110779,771.914185 
	C541.348755,780.395325 541.381653,780.532227 532.441406,776.154663 
	C527.193909,773.585388 521.817566,772.533691 515.992615,773.210144 
	C511.626556,773.717224 508.940613,775.828674 507.950470,780.111145 
	C506.886963,784.711182 510.276611,786.505920 513.399170,787.872681 
	C517.182129,789.528564 521.279114,790.483215 525.266785,791.650757 
	C529.261597,792.820374 533.187195,794.123596 537.040405,795.741211 
	C544.885864,799.034790 549.351746,805.017822 550.047180,813.199402 
	C550.798340,822.036743 547.564697,829.645569 539.910278,834.683960 
	C526.704041,843.376709 503.935608,840.915955 492.301117,830.145325 
	C487.248535,825.467834 491.998688,822.992432 493.751465,819.662659 
	C495.775818,815.816956 498.046478,817.467957 500.644196,819.002258 
	C508.811249,823.825806 517.246155,827.616760 527.118591,824.724243 
	C530.908936,823.613708 533.972961,821.716675 534.220032,817.398926 
	C534.481689,812.824463 531.451416,810.416077 527.599854,809.080200 
	C522.577698,807.338318 517.466003,805.847290 512.365906,804.339417 
	C507.219849,802.818115 502.260223,800.957581 497.884857,797.112305 
z"/>
<path fill="#000000" opacity="1.000000" stroke="none" 
	d="
M460.444641,760.897339 
	C464.710358,759.519165 473.307465,759.371033 477.471832,760.349426 
	C478.161072,762.784607 476.398621,764.380188 475.304230,766.126099 
	C467.356171,778.805603 459.381409,791.468872 451.315887,804.073730 
	C449.903931,806.280334 449.258087,808.492310 449.290680,811.092712 
	C449.388702,818.911743 449.157593,826.738831 449.423523,834.550171 
	C449.546600,838.165527 448.123199,839.399658 444.812866,839.182312 
	C444.647369,839.171387 444.480133,839.182617 444.313904,839.189026 
	C432.834686,839.632996 431.980438,839.555664 433.023926,828.036682 
	C434.320709,813.721313 429.725952,801.859375 421.895782,790.415100 
	C415.989624,781.782959 410.956329,772.553406 405.540558,763.586121 
	C404.946869,762.603088 404.163269,761.675781 404.564453,759.711243 
	C409.800079,758.153381 415.507446,759.073730 420.789856,759.899170 
	C423.833588,760.374756 424.943665,765.134216 426.691071,768.106873 
	C431.214813,775.802490 435.633789,783.559753 440.617340,792.198486 
	C447.488617,781.284119 453.817719,771.230957 460.444641,760.897339 
z"/>
<path fill="#000000" opacity="1.000000" stroke="none" 
	d="
M747.896729,823.992188 
	C750.976257,808.923584 742.033997,798.555542 735.155212,787.548035 
	C730.133728,779.512573 725.460083,771.231873 719.521057,763.794006 
	C718.883423,762.995422 718.383728,762.145630 719.080200,760.138611 
	C724.375671,759.763977 730.044189,759.256409 735.707214,760.519043 
	C737.601013,760.941284 738.393616,762.880676 739.295776,764.478516 
	C743.547607,772.008301 747.777649,779.550537 752.071472,787.056335 
	C753.047791,788.762878 753.877075,790.625000 756.213745,792.196716 
	C761.786072,782.539368 767.348511,772.974731 772.800110,763.347290 
	C773.421814,762.249390 773.201050,760.490662 774.896851,760.333618 
	C780.789734,759.787781 786.709534,759.101440 793.244751,761.039673 
	C787.293457,769.303833 782.282471,777.442444 777.334351,785.621155 
	C773.890381,791.313782 770.399170,796.978943 766.847351,802.604858 
	C764.924377,805.650696 764.066711,808.833008 764.130249,812.490173 
	C764.257324,819.809753 763.963074,827.135620 763.933044,834.459290 
	C763.918518,838.002319 762.452698,839.366821 758.764954,839.361633 
	C747.736938,839.346191 747.736084,839.484009 747.835815,828.484070 
	C747.847900,827.152344 747.872498,825.820679 747.896729,823.992188 
z"/>
</svg>