<svg version="1.1" id="Layer_1" xmlns="http://www.w3.org/2000/svg" xmlns:xlink="http://www.w3.org/1999/xlink" x="0px" y="0px"
	 width="100%" viewBox="0 0 500 500" enable-background="new 0 0 500 500" xml:space="preserve">
<path fill="#E8E7E6" opacity="1.000000" stroke="none" 
	d="
M225.000000,501.000000 
	C151.333344,501.000000 78.166649,500.969391 5.000219,501.096313 
	C1.575837,501.102234 0.903036,500.423798 0.905301,497.000000 
	C1.013779,333.000092 1.013772,169.000122 0.905333,5.000234 
	C0.903070,1.576906 1.575832,0.903023 4.999889,0.905288 
	C168.999771,1.013774 332.999725,1.013761 496.999634,0.905352 
	C500.422668,0.903090 501.096985,1.575452 501.094727,4.999770 
	C500.986206,168.999664 500.986237,332.999634 501.094604,496.999542 
	C501.096893,500.422333 500.425354,501.100372 497.000305,501.095795 
	C406.500305,500.975128 316.000153,501.000000 225.000000,501.000000 
z"/>
<path fill="#18364B" opacity="1.000000" stroke="none" 
	d="
M112.890213,173.744415 
	C124.810982,185.089478 137.205048,195.568649 144.443115,210.477875 
	C157.177094,236.707703 152.916214,269.562744 133.174789,291.094849 
	C121.367050,303.973633 108.623756,315.991638 96.423752,328.516174 
	C93.905708,331.101196 92.352310,330.673584 90.007179,328.273804 
	C79.885117,317.915771 69.577354,307.739227 59.190575,297.193726 
	C57.851635,293.176819 55.436272,290.054321 54.082947,286.383789 
	C52.820374,282.959412 53.629696,281.209778 57.336140,281.638092 
	C59.919376,281.936615 62.214481,281.003357 64.876839,281.048553 
	C63.421597,277.652100 64.685310,275.188263 67.352547,272.892914 
	C68.905785,272.342438 69.824860,272.998627 70.661812,273.770630 
	C72.788353,275.732086 73.292450,273.998596 73.984283,272.076416 
	C75.264252,269.261566 76.536644,266.819550 77.951508,264.057983 
	C79.051704,262.407471 80.161072,261.195221 81.236008,259.510376 
	C87.609390,251.446182 95.176392,244.924332 101.204178,237.026001 
	C102.288513,235.605164 103.650223,233.679245 105.630608,234.782211 
	C107.906181,236.049591 106.856194,238.302841 105.999680,240.072250 
	C103.976479,244.251816 101.053574,247.882202 98.394440,252.093719 
	C95.366318,256.310181 92.028992,259.847412 89.288284,264.262085 
	C88.069466,266.326782 87.274979,268.231873 86.007370,270.274292 
	C84.128983,273.275940 83.048965,276.216248 82.628906,279.374481 
	C81.826775,285.405487 87.166862,294.523010 92.731461,296.738831 
	C93.850922,297.184601 94.619019,296.509460 95.688187,295.744965 
	C96.906525,294.576904 97.931046,293.698273 99.058685,292.445129 
	C100.872429,290.663391 102.509178,289.173798 103.932510,287.042053 
	C104.649574,286.050049 105.271477,285.413544 106.083466,284.500793 
	C107.444878,283.199280 108.578957,282.141571 109.793289,280.684296 
	C110.170502,280.253998 110.331268,280.088531 110.750145,279.688812 
	C119.245888,270.964508 123.593269,260.586395 125.785995,248.765900 
	C127.918472,234.767868 124.347679,222.389816 117.441208,210.770401 
	C116.425926,209.062302 115.074944,207.551331 114.387268,205.244370 
	C114.469414,202.526138 114.391815,200.704498 111.576431,199.384460 
	C109.013313,198.182693 108.579887,194.871002 107.824051,192.201233 
	C107.218018,190.060547 106.487305,188.985992 104.574631,191.732056 
	C101.557495,192.925461 100.450294,190.677414 98.763512,188.850830 
	C98.478241,188.316071 98.385574,188.092987 98.205643,187.522476 
	C98.006378,186.361053 97.894882,185.548965 97.754082,184.737228 
	C97.031250,180.570038 97.593369,179.982361 101.749466,180.801590 
	C104.465515,181.336945 107.116791,182.072815 108.061798,177.911102 
	C108.177269,177.326904 108.233482,177.092712 108.413971,176.514267 
	C109.406654,174.576416 110.397041,173.172134 112.890213,173.744415 
z"/>
<path fill="#1A394E" opacity="1.000000" stroke="none" 
	d="
M108.803314,176.804276 
	C110.099632,183.128860 107.410530,184.320114 98.952263,181.398666 
	C97.238495,183.267807 100.757935,184.889771 98.976074,186.911652 
	C96.868706,187.623840 95.716736,186.468292 94.328949,185.128464 
	C93.919151,184.531433 94.022881,183.945053 93.765411,183.809769 
	C93.187431,183.506119 93.873695,183.610596 93.516983,184.539581 
	C93.171783,185.231888 92.878181,185.566376 92.261047,186.060822 
	C82.481201,194.520142 73.241653,203.011490 67.055420,214.649811 
	C63.288174,221.198547 61.372269,227.985397 60.708500,235.101776 
	C60.522552,237.095337 59.614902,240.315048 64.172966,239.194702 
	C67.147270,238.293289 69.648293,237.192169 72.206451,235.403320 
	C74.134026,234.350296 75.758591,233.466354 77.564713,232.195068 
	C85.582481,228.130997 91.744850,222.642334 95.796570,214.904007 
	C96.599464,213.370590 97.144287,211.380875 99.859940,211.677582 
	C101.300133,218.463272 97.277931,223.126434 93.685211,227.724899 
	C90.530396,231.762878 86.585106,235.155441 82.082932,238.370041 
	C79.794304,239.769363 77.888527,241.097534 75.685326,242.603271 
	C74.200760,243.462524 72.952499,244.034302 71.487961,244.929230 
	C68.843231,246.190918 67.421654,248.334915 65.592400,250.012833 
	C63.108593,252.291138 62.789124,254.963028 63.502151,258.208313 
	C64.550171,262.978302 68.009438,266.784698 68.435806,272.021851 
	C67.443199,275.372681 62.807816,278.066986 67.548950,281.622223 
	C68.022446,281.977264 67.109184,283.298920 66.889626,283.103119 
	C63.549633,280.124664 60.033062,285.773041 56.725346,282.822021 
	C55.709274,281.915527 54.780270,282.626495 54.351280,283.604950 
	C53.811581,284.835876 54.391216,285.277252 55.738186,285.374146 
	C57.112530,285.473022 58.025387,287.108643 57.498653,287.866821 
	C55.494194,290.752136 57.877201,291.608948 59.485268,292.689117 
	C61.599792,294.109528 60.146961,295.156311 59.194611,296.613098 
	C42.392368,281.536255 34.716610,262.466278 35.543041,239.915436 
	C36.297810,219.320099 44.332104,202.077026 59.202976,187.805038 
	C69.401390,178.017319 79.291985,167.905518 89.198181,157.818787 
	C92.101326,154.862732 94.011398,154.695175 97.370331,157.728561 
	C102.835976,162.664474 107.377632,168.467880 113.076645,173.590851 
	C111.368401,173.936142 110.410545,175.204712 109.265930,176.791290 
	C108.804497,176.803131 108.608521,176.606735 108.412094,176.410812 
	C108.215599,176.214828 108.280449,176.280746 108.803314,176.804276 
z"/>
<path fill="#1B3B50" opacity="1.000000" stroke="none" 
	d="
M101.204208,152.080719 
	C97.748116,150.827423 96.488762,145.491241 93.116936,146.335114 
	C90.186050,147.068619 87.963417,150.783401 85.514542,153.266251 
	C72.900345,166.055420 59.820045,178.428879 47.836124,191.785187 
	C30.683283,210.902359 24.797388,233.621567 29.186136,258.963745 
	C29.457365,260.529907 30.488449,262.047821 29.578194,263.825195 
	C26.803448,263.571716 25.892269,261.159393 24.654800,259.358765 
	C6.035614,232.265854 8.224627,202.214081 31.105349,178.525482 
	C50.966984,157.962585 71.367355,137.920578 91.452133,117.571854 
	C93.188690,115.812469 93.920746,115.898163 95.616928,117.691536 
	C101.554565,123.969429 107.757393,129.996490 113.992325,136.418503 
	C114.820786,139.164215 113.024742,140.064148 111.339485,140.532623 
	C109.497490,141.044678 108.543983,142.809143 107.374809,143.383560 
	C103.564529,145.255600 103.980644,149.499207 101.204208,152.080719 
z"/>
<path fill="#1A374C" opacity="1.000000" stroke="none" 
	d="
M100.954758,152.465668 
	C102.454430,149.262344 100.286011,144.339417 106.050636,143.431305 
	C108.024895,143.120300 105.604225,140.543015 106.560341,138.646042 
	C109.166046,140.003281 111.829674,140.219055 113.961533,137.045563 
	C115.746178,138.237366 117.367195,139.756561 119.117249,141.584747 
	C118.827110,143.706573 117.721802,145.191803 116.315544,146.191696 
	C113.433350,148.241013 117.867584,146.891083 117.200089,148.090179 
	C117.373367,148.304550 117.697220,148.657471 117.936325,148.567963 
	C119.306114,147.173538 119.711258,145.227264 121.927338,144.739197 
	C123.192169,146.003006 124.135651,147.125397 125.195679,148.552704 
	C125.055557,149.721634 125.078255,150.430832 126.537994,150.430664 
	C127.717735,150.788956 128.795212,151.034760 129.431305,151.701599 
	C140.327728,163.124512 152.594971,173.262909 162.394287,185.692490 
	C179.691818,207.632950 178.544403,241.684494 160.190155,262.333954 
	C159.541870,263.063354 158.998276,263.999023 157.393753,263.552277 
	C157.483566,258.377167 158.876221,253.274139 159.136429,248.042480 
	C160.285843,224.932648 152.349091,205.349045 136.590652,188.778488 
	C127.875877,179.614594 118.866570,170.730789 109.853622,161.407715 
	C110.033539,159.779938 111.791458,159.068283 111.520149,157.664948 
	C111.244522,156.239243 110.730728,154.718063 110.070969,153.496384 
	C108.968094,151.454193 107.502495,153.447998 106.241966,153.829697 
	C104.840744,154.253983 103.620590,153.929520 102.072693,153.231262 
	C101.429344,153.103867 101.177162,152.967621 100.954758,152.465668 
z"/>
<path fill="#1F3D52" opacity="1.000000" stroke="none" 
	d="
M289.382812,230.853088 
	C291.327972,245.466141 283.185913,255.320206 268.921814,255.919785 
	C263.271210,256.157318 257.597870,255.846405 251.946228,256.070892 
	C249.207153,256.179718 248.604843,255.150543 248.627075,252.646042 
	C248.729004,241.160248 248.753906,229.672028 248.612656,218.187073 
	C248.578842,215.437943 249.582855,214.832825 252.093124,214.909073 
	C257.914734,215.085953 263.753815,214.801346 269.568207,215.076263 
	C279.685425,215.554626 286.545197,221.043335 289.382812,230.853088 
z"/>
<path fill="#203E53" opacity="1.000000" stroke="none" 
	d="
M219.858337,256.733215 
	C204.280045,255.845230 195.403030,246.550980 196.756516,233.016068 
	C197.848022,222.100891 207.056183,214.259445 218.867172,214.187164 
	C230.806320,214.114090 240.249451,222.161697 241.259995,233.270752 
	C242.308670,244.798935 235.269455,254.014511 223.739410,256.189636 
	C222.596909,256.405151 221.439285,256.540649 219.858337,256.733215 
z"/>
<path fill="#224054" opacity="1.000000" stroke="none" 
	d="
M424.016846,256.016449 
	C419.716064,255.900574 414.711151,257.204712 412.435669,255.280701 
	C410.023651,253.241287 411.731293,248.069901 411.688263,244.272064 
	C411.590302,235.622330 411.730103,226.969757 411.613617,218.320480 
	C411.579834,215.810501 412.209503,214.826462 414.940857,214.886017 
	C423.088745,215.063675 431.246552,215.089813 439.392975,214.880997 
	C442.591644,214.798996 442.775696,216.323273 442.802917,218.812439 
	C442.831604,221.440842 442.299530,222.819977 439.251617,222.693314 
	C434.269440,222.486252 429.261414,222.843826 424.284851,222.578171 
	C420.398895,222.370712 421.108978,224.839752 421.034576,227.106750 
	C420.954193,229.555695 420.758514,231.736420 424.444122,231.491348 
	C428.584717,231.216049 432.768707,231.616989 436.913696,231.376663 
	C440.319733,231.179184 440.049652,233.197708 440.139435,235.478195 
	C440.235596,237.921738 439.683563,239.149323 436.883270,238.988068 
	C433.069641,238.768417 429.199066,239.256073 425.416779,238.848129 
	C421.273834,238.401306 421.043213,240.355591 420.921326,243.703354 
	C420.783234,247.496719 421.930237,248.619080 425.659790,248.363983 
	C430.461823,248.035583 435.313202,248.473038 440.124481,248.220779 
	C443.478821,248.044907 443.347778,249.936172 443.434723,252.269318 
	C443.530670,254.844849 443.092010,256.239075 439.981659,256.085327 
	C434.836975,255.830978 429.670593,256.016357 424.016846,256.016449 
z"/>
<path fill="#224054" opacity="1.000000" stroke="none" 
	d="
M365.006470,219.748581 
	C363.973022,223.626556 362.664612,225.613220 358.500305,223.263565 
	C355.444885,221.539566 351.723175,221.536362 348.230255,222.198486 
	C346.062134,222.609482 344.011841,223.554535 343.859711,226.262741 
	C343.716614,228.810867 345.537689,229.687897 347.540253,230.275177 
	C351.366486,231.397247 355.241547,232.360321 359.041473,233.562805 
	C363.853882,235.085648 367.247955,237.954071 367.486633,243.436829 
	C367.710419,248.577606 364.905823,252.881668 359.568146,254.967148 
	C351.665100,258.054962 343.925873,256.899353 336.267365,253.750504 
	C332.427460,252.171677 334.488190,249.991867 335.217285,247.724487 
	C336.115234,244.931976 337.442993,245.279358 339.596436,246.448608 
	C343.790344,248.725830 348.385315,249.533340 353.132599,248.833618 
	C355.312256,248.512360 357.540680,247.754761 357.902100,245.162979 
	C358.291229,242.372360 356.079620,241.459473 353.975677,240.808289 
	C350.168091,239.629868 346.280396,238.707367 342.483704,237.497345 
	C337.615662,235.945892 334.462372,232.808990 334.186249,227.448563 
	C333.935852,222.586823 336.761536,218.188843 341.706726,216.112366 
	C348.853363,213.111481 356.022217,213.771942 363.088074,216.547165 
	C364.300323,217.023285 365.707672,217.518875 365.006470,219.748581 
z"/>
<path fill="#224054" opacity="1.000000" stroke="none" 
	d="
M383.709442,248.746887 
	C386.934418,249.010147 389.752533,249.371811 392.500427,248.324127 
	C394.201324,247.675629 395.398132,246.585663 395.418915,244.698196 
	C395.437561,243.009644 394.334534,241.832062 392.856506,241.354401 
	C389.071167,240.130981 385.207581,239.152084 381.403778,237.982758 
	C374.627228,235.899582 371.773956,232.577789 371.814240,226.963623 
	C371.855957,221.142685 375.577698,216.749161 381.978729,215.071320 
	C388.142120,213.455780 394.147034,214.254395 400.111053,216.235840 
	C403.281036,217.289017 402.999603,219.080429 401.880280,221.555481 
	C400.917908,223.683456 400.333405,225.419083 397.371368,223.800247 
	C393.774628,221.834564 389.740356,221.524445 385.718384,222.193283 
	C383.469238,222.567291 381.500153,223.729553 381.286743,226.245148 
	C381.079895,228.683044 382.970276,229.661682 384.978363,230.259033 
	C389.110657,231.488266 393.304260,232.529037 397.387543,233.900589 
	C401.831482,235.393265 404.783508,238.322678 404.987762,243.309402 
	C405.192810,248.313446 402.948456,252.076431 398.540649,254.220551 
	C389.964417,258.392334 381.450378,257.203491 373.097260,253.319580 
	C369.361481,251.582565 372.407745,249.511658 372.876617,247.612564 
	C373.459778,245.250671 374.649231,245.002808 376.800934,246.238983 
	C378.779205,247.375519 381.118225,247.884079 383.709442,248.746887 
z"/>
<path fill="#224054" opacity="1.000000" stroke="none" 
	d="
M483.714691,219.655945 
	C481.710785,222.968002 480.038513,226.049515 478.081543,228.938141 
	C473.161133,236.200928 468.968567,243.620636 470.630829,252.935043 
	C471.251984,256.415588 468.663391,256.350128 466.542297,255.936386 
	C464.579895,255.553589 460.453369,257.875885 461.160828,253.394424 
	C462.827545,242.836807 457.571167,234.890930 452.313202,226.778427 
	C449.989777,223.193604 447.909607,219.451157 445.638580,215.645462 
	C454.670227,213.930862 454.667480,213.939728 459.020660,221.159424 
	C461.315369,224.965195 463.650696,228.746475 466.253235,233.006256 
	C468.935944,228.598297 471.740204,224.996277 473.455231,220.934357 
	C475.962433,214.996307 480.048492,213.810562 485.726837,215.376663 
	C485.812561,217.007355 484.467316,217.996902 483.714691,219.655945 
z"/>
<path fill="#224054" opacity="1.000000" stroke="none" 
	d="
M298.053345,225.990356 
	C295.921875,222.409897 293.959381,219.152557 291.965332,215.842896 
	C299.511200,213.657349 301.123474,214.251205 304.821899,220.401352 
	C307.296265,224.516022 309.779694,228.625229 312.466400,233.080719 
	C315.041199,228.853180 317.825531,225.223450 319.593597,221.152374 
	C322.091064,215.401764 326.030762,213.771194 332.427185,215.456680 
	C329.151459,220.938309 326.233978,226.485855 322.682831,231.592743 
	C318.348175,237.826385 315.711670,244.353638 316.924347,252.023499 
	C317.567749,256.092926 315.212311,256.264740 312.226837,256.042389 
	C309.699493,255.854156 306.348389,256.814636 307.256348,252.311371 
	C309.368317,241.836304 303.133942,234.316650 298.053345,225.990356 
z"/>
<path fill="#1B3B50" opacity="1.000000" stroke="none" 
	d="
M101.891708,153.406845 
	C103.703705,152.722031 106.127121,153.813004 107.265915,151.031906 
	C107.703552,149.963135 108.946060,149.883514 109.775597,150.579910 
	C110.667664,151.328812 112.056206,151.473846 112.164490,153.279282 
	C112.332886,156.087051 116.328148,159.551788 110.080170,161.039978 
	C107.152229,158.636780 104.587250,156.178864 101.891708,153.406845 
z"/>
<path fill="#1B3B50" opacity="1.000000" stroke="none" 
	d="
M117.368240,149.987991 
	C116.297951,146.138336 113.436546,149.741989 111.693398,148.373993 
	C114.027077,146.278137 116.305138,144.232224 118.914742,142.040039 
	C120.161575,142.701431 121.076874,143.509109 122.120438,144.598694 
	C120.219193,146.113907 121.116661,149.938522 117.368240,149.987991 
z"/>
<path fill="#1B3B50" opacity="1.000000" stroke="none" 
	d="
M126.706421,150.108276 
	C126.061035,150.854553 124.889275,151.966476 124.563210,151.757660 
	C123.518875,151.088928 124.168442,150.069992 125.033920,149.051636 
	C125.730545,149.194839 126.148857,149.532089 126.706421,150.108276 
z"/>
<path fill="#CBCFCF" opacity="1.000000" stroke="none" 
	d="
M80.697563,238.034882 
	C85.269157,233.968781 89.968323,230.543793 93.530563,225.885666 
	C96.487801,222.018738 98.547913,217.738251 99.812737,212.687195 
	C98.716049,210.207184 97.984520,208.136078 94.518539,208.297607 
	C91.474388,208.439453 89.767311,205.068100 87.373436,202.826691 
	C87.913834,197.490829 89.926392,195.715363 96.163498,194.991425 
	C100.457275,196.550064 103.629333,199.306732 107.205711,201.378571 
	C108.859001,202.336319 110.219040,203.955917 109.464584,205.905655 
	C108.268967,208.995514 109.664474,211.405869 110.928566,213.882904 
	C111.991074,215.964905 113.198479,217.934570 112.593994,220.435562 
	C112.399414,221.240646 112.321327,222.437653 112.970291,222.784988 
	C117.486176,225.202209 117.289047,230.319885 119.345383,234.073456 
	C123.961823,242.500244 122.229935,251.349899 119.234604,259.976501 
	C119.089966,260.393097 118.453087,260.545074 117.612572,260.635620 
	C113.809837,260.547394 110.435364,260.457886 107.126526,258.975464 
	C104.132904,257.634277 102.967392,260.255859 102.246025,262.420654 
	C101.223625,265.488861 101.582634,268.430359 104.977043,269.914124 
	C107.319496,270.938049 109.414185,270.833923 110.562271,267.865387 
	C111.694580,264.937653 113.229095,262.199860 116.571320,260.684082 
	C119.194901,261.707184 119.849960,264.027679 118.739182,265.556915 
	C116.266380,268.961121 116.951927,273.789215 113.324196,276.594574 
	C112.177704,277.481171 112.034065,279.189972 111.276550,280.836121 
	C111.137749,281.157349 111.015671,281.024567 111.087181,281.079498 
	C109.524498,281.847321 107.817619,282.475983 107.324615,284.803650 
	C106.818420,285.782715 106.277939,286.430054 105.455994,287.229431 
	C103.658340,287.275970 102.195885,287.460236 100.800079,288.110748 
	C99.470657,288.730286 98.223366,288.667389 97.158073,287.537231 
	C95.247932,285.510712 94.853752,282.126221 91.065376,281.688751 
	C89.843468,281.547638 90.484085,279.150085 91.351830,278.244446 
	C94.001549,275.479095 93.250023,272.508301 92.198158,269.110168 
	C91.755165,264.872437 92.712624,261.369934 94.895279,258.069092 
	C95.946686,256.479034 96.754074,254.617004 96.816422,252.260834 
	C99.845009,247.423660 102.989784,242.963440 105.443123,238.065216 
	C105.900108,237.152832 106.591133,236.116760 105.673141,235.374649 
	C104.613441,234.517929 103.808830,235.660904 103.313828,236.409180 
	C97.500389,245.197174 89.195808,251.808563 82.475334,260.251038 
	C79.864761,259.244446 78.974380,256.465179 76.381607,255.336456 
	C74.733963,254.619202 75.291748,252.647980 76.117012,251.379837 
	C78.710167,247.395081 79.477585,242.832077 80.697563,238.034882 
z"/>
<path fill="#BEC5C6" opacity="1.000000" stroke="none" 
	d="
M116.775223,260.245728 
	C120.767654,258.291412 119.544792,254.310425 119.855995,251.718613 
	C120.415016,247.062973 120.947380,242.191193 119.623550,237.317886 
	C118.931686,234.770981 115.929581,234.150940 115.926704,231.828506 
	C115.922409,228.362564 114.842255,225.904892 111.687653,224.275558 
	C110.989731,223.915070 110.176712,222.308456 110.437851,221.789139 
	C112.841995,217.008286 109.355820,214.063828 107.063530,210.899902 
	C105.911766,209.310196 106.714905,208.286362 107.432724,207.392822 
	C109.605827,204.687683 108.305717,203.398987 105.837364,202.056061 
	C102.850433,200.431046 100.033150,198.494217 97.063126,196.351593 
	C94.612694,194.008087 93.503342,191.225418 92.125320,188.193710 
	C91.419388,187.050598 91.098137,186.169403 91.604294,184.827774 
	C91.789749,184.243668 91.943352,184.055389 92.323509,183.844666 
	C92.845612,183.730301 93.196175,183.683228 94.075684,183.677933 
	C95.793045,184.763550 96.981483,185.807449 98.439468,186.974976 
	C98.709007,187.098602 98.807838,187.557968 98.873650,187.783508 
	C99.641846,191.072845 101.361702,193.057068 104.995514,193.373184 
	C110.137222,194.943832 111.239113,199.960968 114.393982,203.424500 
	C113.743439,206.193573 114.352242,208.184937 116.020691,210.095093 
	C118.532066,212.970261 120.654526,216.137558 119.675476,220.273056 
	C119.347374,221.658966 120.344284,221.931183 121.043999,222.533539 
	C123.060417,224.269455 122.086571,225.637131 120.205101,227.110321 
	C119.658257,227.392212 119.336823,227.407333 119.153450,227.570145 
	C118.892708,227.801620 119.269684,227.613068 119.614372,227.790543 
	C124.225113,230.098923 124.955353,233.974319 125.262321,238.328339 
	C125.505226,241.773682 123.799789,245.529938 126.852783,248.834412 
	C125.470299,261.300720 120.320358,271.914612 111.444733,281.017700 
	C110.909630,278.217438 110.338600,275.250610 114.161278,273.854065 
	C117.515503,272.628723 112.194275,269.705322 114.947693,268.438324 
	C118.271667,266.908752 118.374794,264.559174 117.137436,261.325989 
	C116.841301,260.826935 116.696022,260.659210 116.775223,260.245728 
z"/>
<path fill="#A7B0B2" opacity="1.000000" stroke="none" 
	d="
M118.808167,227.238892 
	C119.522781,225.524185 123.924187,223.546997 118.450409,222.853012 
	C117.480873,222.730087 116.814362,221.864929 117.372345,221.088470 
	C120.928207,216.140305 116.752075,213.237564 114.192619,210.405396 
	C112.095322,208.084641 111.636147,206.450714 113.946579,204.049988 
	C114.224373,203.927216 114.631828,203.700500 114.807312,203.854004 
	C124.603325,217.230179 129.613251,231.761520 127.346619,248.652634 
	C123.552162,251.202271 122.943680,248.539093 123.566391,246.254547 
	C124.474556,242.922699 123.252609,239.747879 123.741226,236.439240 
	C124.220154,233.196243 121.823051,230.658051 119.158203,228.295319 
	C118.862106,227.820404 118.736008,227.652237 118.808167,227.238892 
z"/>
<path fill="#BEC5C6" opacity="1.000000" stroke="none" 
	d="
M92.770782,268.775879 
	C98.537506,273.746002 93.745140,277.105774 90.311264,281.709320 
	C94.530098,280.003265 97.208733,279.639374 96.709404,284.429352 
	C96.665550,284.849976 98.007927,290.083862 101.238831,285.942535 
	C102.548004,284.264465 103.873940,285.369873 105.013763,287.052856 
	C103.603455,289.117615 102.032372,290.853790 100.195038,292.776489 
	C98.698090,293.351196 97.540710,293.920288 96.020744,294.450928 
	C95.470451,294.442200 95.251686,294.395264 94.755753,294.157166 
	C92.820534,291.925385 91.795120,289.346771 89.114250,287.740479 
	C88.723640,287.344910 88.588600,287.167542 88.319550,286.685638 
	C87.693428,284.739929 88.548859,282.898438 87.329391,281.029968 
	C86.294327,277.360352 85.383217,274.006256 84.706169,270.237244 
	C85.542404,268.050018 86.468765,266.200226 87.685913,264.168945 
	C90.903732,264.104004 90.225494,267.823669 92.770782,268.775879 
z"/>
<path fill="#959FA5" opacity="1.000000" stroke="none" 
	d="
M68.551353,272.624329 
	C66.569748,268.271393 64.062256,264.566467 62.768616,260.259125 
	C60.533134,252.815796 60.764057,251.690430 66.708260,246.666412 
	C67.832939,245.715836 69.092308,244.924622 70.623154,243.977142 
	C72.202362,244.923096 72.227234,246.381973 71.534538,247.487579 
	C69.659271,250.480743 70.256187,253.703033 69.904976,256.918213 
	C69.263054,262.794769 71.623688,267.152893 75.037628,271.740417 
	C74.954742,274.163300 74.446999,277.239563 72.981865,277.496429 
	C70.471153,277.936554 70.113701,274.599365 68.551353,272.624329 
z"/>
<path fill="#A7B0B2" opacity="1.000000" stroke="none" 
	d="
M84.370010,270.140106 
	C88.169716,272.569000 87.370399,276.771301 88.173401,280.682129 
	C88.096611,282.520142 87.882317,284.069580 88.779068,285.756470 
	C89.011627,285.991333 89.024086,286.479279 89.028290,286.723267 
	C90.975670,289.071075 91.875687,292.028412 94.742134,293.789490 
	C95.020859,293.974091 95.510788,293.982300 95.755783,293.983887 
	C96.611053,294.289917 96.929626,294.805420 97.109528,295.766876 
	C94.554092,300.729584 92.152443,299.613281 89.197807,296.183319 
	C85.029770,291.344727 79.356499,287.480927 80.926552,279.718018 
	C81.591064,276.432495 82.608604,273.339325 84.370010,270.140106 
z"/>
<path fill="#BBC2C3" opacity="1.000000" stroke="none" 
	d="
M80.546997,237.814606 
	C82.410812,242.969086 80.173225,247.326065 77.654335,251.645782 
	C77.036201,252.705826 75.043823,254.878525 77.878853,254.740952 
	C82.319695,254.525452 80.916809,257.882324 82.068146,260.123383 
	C81.431602,261.595764 80.655235,262.721558 79.635376,264.019287 
	C74.053215,265.607910 70.696068,263.197235 70.777153,257.715729 
	C70.856987,252.318832 71.266312,246.928848 74.642349,241.880280 
	C76.576881,240.294052 78.400322,239.100372 80.546997,237.814606 
z"/>
<path fill="#A7B0B2" opacity="1.000000" stroke="none" 
	d="
M74.437164,241.581955 
	C75.114120,243.960175 74.054573,246.099808 73.517548,248.386230 
	C72.617462,252.218430 71.500580,256.387939 72.709938,260.552917 
	C73.605515,263.637207 76.280762,263.457855 78.977051,264.132355 
	C78.140785,266.666962 76.889702,269.142700 75.387672,271.846680 
	C70.613899,269.934631 67.371109,263.859344 68.226677,258.921326 
	C68.450073,257.631989 69.546646,256.082703 68.657661,255.115723 
	C66.249931,252.496735 67.710136,250.779877 69.450195,248.783432 
	C70.417885,247.673157 71.018257,246.236404 70.961617,244.275238 
	C72.011482,243.154984 73.066185,242.415573 74.437164,241.581955 
z"/>
<path fill="#BBC2C3" opacity="1.000000" stroke="none" 
	d="
M93.014107,268.598846 
	C87.918541,271.095886 89.480370,266.529602 88.239243,264.249023 
	C90.728241,260.102966 93.479797,256.218445 96.494675,252.127930 
	C99.090088,254.106277 97.544350,257.921234 96.791374,258.427460 
	C93.005257,260.972809 94.491753,265.089050 93.014107,268.598846 
z"/>
<path fill="#1A394E" opacity="1.000000" stroke="none" 
	d="
M115.243011,203.753113 
	C114.982796,204.007492 114.605301,203.951462 114.414841,203.939331 
	C111.368080,200.710938 108.511787,197.494644 105.363251,194.118515 
	C104.506142,193.724518 104.024803,193.402039 103.881195,192.487732 
	C104.722260,190.704544 102.475449,187.635361 105.788406,187.665024 
	C107.777534,187.682846 109.072960,188.965897 109.361984,191.849899 
	C109.593971,194.164749 109.269417,198.414612 114.277550,198.595459 
	C116.593491,198.679092 116.195877,201.535339 115.243011,203.753113 
z"/>
<path fill="#B1B9BA" opacity="1.000000" stroke="none" 
	d="
M103.629028,192.070587 
	C104.254616,192.615051 104.572693,193.035629 104.980896,193.707443 
	C104.044510,193.958298 103.653404,196.669647 102.665314,195.070404 
	C101.232979,192.752136 96.280380,192.537216 98.632492,188.064758 
	C100.400154,189.321579 101.860840,190.634140 103.629028,192.070587 
z"/>
<path fill="#BEC5C6" opacity="1.000000" stroke="none" 
	d="
M107.643417,285.010437 
	C105.550705,281.658630 108.151718,281.496704 110.784317,281.105774 
	C110.081764,282.384766 109.004852,283.635132 107.643417,285.010437 
z"/>
<path fill="#B1B9BA" opacity="1.000000" stroke="none" 
	d="
M97.441559,295.967041 
	C96.796410,295.590271 96.437332,295.101257 96.039520,294.298889 
	C96.727829,292.506622 97.729149,291.760742 99.649536,292.843933 
	C99.195084,293.927002 98.461357,294.890900 97.441559,295.967041 
z"/>
<path fill="#1A394E" opacity="1.000000" stroke="none" 
	d="
M76.025650,280.620117 
	C77.073944,281.464325 77.169899,282.348145 76.407242,283.198608 
	C76.281509,283.338806 75.711609,283.327850 75.587975,283.182190 
	C74.853661,282.317108 74.939842,281.435272 76.025650,280.620117 
z"/>
<path fill="#B1B9BA" opacity="1.000000" stroke="none" 
	d="
M91.390991,184.633942 
	C92.025833,185.425049 92.360481,186.373276 92.849182,187.661652 
	C94.046570,189.816360 93.923256,191.345947 92.220444,192.808624 
	C84.567795,199.382202 79.825043,207.679825 76.845062,217.317276 
	C75.778114,220.767868 73.572533,223.829269 73.082085,227.683167 
	C72.720009,230.528305 74.919540,233.157990 73.223343,236.253326 
	C70.799820,238.142731 68.328537,239.334000 65.352104,240.328873 
	C62.413151,234.936432 63.693947,229.334229 64.860832,223.767792 
	C65.493118,220.751572 67.144753,217.881821 65.770172,214.310730 
	C71.912613,202.326309 81.614098,193.656830 91.390991,184.633942 
z"/>
<path fill="#D4D7D6" opacity="1.000000" stroke="none" 
	d="
M87.632004,202.901093 
	C90.353981,203.108017 91.611061,205.091599 93.189079,206.408112 
	C93.938759,207.033600 93.727005,207.710342 95.169228,207.038422 
	C99.905281,204.831879 100.422104,207.755768 99.914024,211.915619 
	C99.434013,212.456818 98.669746,212.443146 98.569336,212.694580 
	C94.745895,222.268478 87.249786,228.367096 78.509407,233.731812 
	C75.991669,231.894363 71.071503,230.742554 76.243263,226.782867 
	C76.982384,226.216980 76.496857,225.234604 76.324013,224.434174 
	C75.048256,218.526398 77.519081,214.252869 82.046776,210.689117 
	C84.582161,208.693512 85.925392,205.725723 87.632004,202.901093 
z"/>
<path fill="#C6CBCA" opacity="1.000000" stroke="none" 
	d="
M87.993301,202.584824 
	C88.656097,206.109283 84.424591,207.734055 85.420807,211.035339 
	C85.470016,211.198410 84.782585,211.661591 84.379189,211.871872 
	C76.785599,215.830093 75.405899,220.371323 79.608727,227.895691 
	C78.528793,229.616165 76.329987,227.228928 75.107292,229.456833 
	C76.217400,230.333359 77.590599,231.383972 78.052780,233.454926 
	C76.653816,234.626907 75.160767,235.433807 73.377861,236.407928 
	C72.988022,232.962448 72.242096,229.244675 71.869041,225.820770 
	C71.243706,220.081497 76.083351,217.971832 76.821274,213.263626 
	C78.141685,204.839050 84.535255,198.482712 89.861580,191.946548 
	C90.794762,190.801392 93.799713,191.595795 92.998955,188.342560 
	C94.658539,190.253708 96.546219,192.378494 96.987274,195.651718 
	C92.586433,196.048508 89.344109,197.755829 87.993301,202.584824 
z"/>
<path fill="#959FA5" opacity="1.000000" stroke="none" 
	d="
M65.375961,214.202271 
	C69.006721,214.588638 68.841110,217.406189 67.945099,219.298950 
	C64.861366,225.813202 65.645279,232.755203 65.021210,240.013321 
	C59.388191,242.977371 59.131596,242.837906 59.164413,237.141342 
	C59.210949,229.064331 61.826973,221.658905 65.375961,214.202271 
z"/>
<path fill="#18364B" opacity="1.000000" stroke="none" 
	d="
M98.609512,171.590363 
	C96.401855,169.599228 97.513603,167.227814 98.767097,166.776215 
	C100.993690,165.974091 103.166252,167.220078 104.354401,169.584290 
	C104.974518,170.818207 106.729469,172.112625 104.774101,173.320724 
	C102.534668,174.704330 100.349083,174.270569 98.609512,171.590363 
z"/>
<path fill="#18364B" opacity="1.000000" stroke="none" 
	d="
M97.271927,177.526337 
	C97.533020,178.547562 97.022797,178.862457 96.359200,178.733917 
	C96.049675,178.673950 95.556686,178.095551 95.614456,177.874161 
	C95.803337,177.150330 96.440460,177.134506 97.271927,177.526337 
z"/>
<path fill="#18364B" opacity="1.000000" stroke="none" 
	d="
M97.650177,163.578552 
	C98.380180,163.374924 98.645561,163.630203 98.532112,164.197449 
	C98.508545,164.315277 98.341370,164.473602 98.222275,164.491287 
	C97.649078,164.576370 97.409767,164.296997 97.650177,163.578552 
z"/>
<path fill="#18364B" opacity="1.000000" stroke="none" 
	d="
M108.958038,176.730347 
	C108.513863,176.708450 108.027733,176.416885 107.541595,176.125336 
	C107.709557,175.928314 107.877518,175.731293 108.045479,175.534271 
	C108.335678,175.843079 108.625870,176.151901 108.958038,176.730347 
z"/>
<path fill="#B1B9BA" opacity="1.000000" stroke="none" 
	d="
M94.384689,183.444977 
	C94.254356,183.748367 93.904106,183.777100 93.024445,183.791565 
	C92.874290,183.087204 93.367355,182.710129 94.384689,183.444977 
z"/>
<path fill="#1B3B50" opacity="1.000000" stroke="none" 
	d="
M105.886032,148.777222 
	C105.157875,148.824997 104.653252,148.682755 104.850121,148.102982 
	C105.065155,147.469711 105.650215,147.181442 106.248566,147.599396 
	C106.395088,147.701752 106.181244,148.319992 105.886032,148.777222 
z"/>
<path fill="#1B3B50" opacity="1.000000" stroke="none" 
	d="
M117.000305,150.000305 
	C116.708725,150.486237 116.416847,150.971848 116.124969,151.457474 
	C115.928246,151.289398 115.731529,151.121307 115.534821,150.953217 
	C115.843292,150.662979 116.151764,150.372726 116.729813,150.040924 
	C116.999390,149.999390 117.000000,150.000000 117.000305,150.000305 
z"/>
<path fill="#1B3B50" opacity="1.000000" stroke="none" 
	d="
M126.480652,152.467056 
	C126.520020,152.446472 126.441277,152.487640 126.480652,152.467056 
z"/>
<path fill="#1B3B50" opacity="1.000000" stroke="none" 
	d="
M108.532898,141.480072 
	C108.553505,141.519531 108.512299,141.440613 108.532898,141.480072 
z"/>
<path fill="#1B3B50" opacity="1.000000" stroke="none" 
	d="
M108.520889,144.534363 
	C108.480003,144.555954 108.561783,144.512772 108.520889,144.534363 
z"/>
<path fill="#1B3B50" opacity="1.000000" stroke="none" 
	d="
M106.467041,145.520035 
	C106.446388,145.480484 106.487686,145.559586 106.467041,145.520035 
z"/>
<path fill="#E5E5E4" opacity="1.000000" stroke="none" 
	d="
M264.911133,222.808960 
	C275.503967,223.147476 280.229584,227.228928 280.180481,235.592361 
	C280.138580,242.730515 275.796204,247.410538 268.631500,248.039383 
	C258.075287,248.965897 258.075287,248.965897 258.075287,238.573944 
	C258.075287,235.417862 258.421051,232.214615 257.998260,229.116226 
	C257.275543,223.819931 259.344513,221.899078 264.911133,222.808960 
z"/>
<path fill="#E2E2E2" opacity="1.000000" stroke="none" 
	d="
M216.663239,222.567093 
	C222.917572,221.872192 227.548050,223.846146 230.369858,229.185562 
	C232.940964,234.050568 232.292694,240.219833 228.783218,244.190933 
	C225.110779,248.346436 220.436737,249.451233 215.169144,248.025024 
	C209.772705,246.563919 206.194519,241.594269 206.114655,235.651657 
	C206.027451,229.164719 209.477325,224.756454 216.663239,222.567093 
z"/>
<path fill="#D4D7D6" opacity="1.000000" stroke="none" 
	d="
M116.639023,259.841583 
	C116.999695,260.000000 116.995110,260.497406 116.990845,260.746033 
	C115.382622,263.028503 113.517502,264.913788 112.251045,267.139648 
	C111.076698,269.203644 112.082588,272.868317 107.870033,272.395172 
	C103.555893,271.910614 100.331833,270.214233 100.076782,265.316132 
	C99.875626,261.452881 101.917267,258.691071 104.788864,256.462952 
	C105.174347,256.163879 106.357773,256.206848 106.611572,256.530548 
	C109.155182,259.774994 113.140137,258.417206 116.639023,259.841583 
z"/>
<path fill="#BEC5C6" opacity="1.000000" stroke="none" 
	d="
M115.651772,254.578125 
	C116.382797,254.374298 116.647400,254.630951 116.534370,255.198120 
	C116.510872,255.315994 116.343513,255.474457 116.224243,255.492249 
	C115.649536,255.577988 115.412079,255.296310 115.651772,254.578125 
z"/>
<path fill="#CBCFCF" opacity="1.000000" stroke="none" 
	d="
M118.858444,227.088699 
	C119.006424,226.993729 119.007973,227.491486 118.998093,227.740021 
	C118.839043,227.821335 118.671570,227.665680 118.553596,227.478790 
	C118.524094,227.432053 118.653885,227.284744 118.858444,227.088699 
z"/>
<path fill="#B1B9BA" opacity="1.000000" stroke="none" 
	d="
M95.007866,293.607849 
	C89.938225,294.729218 90.326080,290.387695 89.049011,287.274597 
	C92.717628,287.445465 94.109993,290.102386 95.007866,293.607849 
z"/>
<path fill="#B1B9BA" opacity="1.000000" stroke="none" 
	d="
M89.049377,285.663208 
	C86.719475,284.945496 85.604790,283.511139 87.724091,281.057922 
	C90.338951,281.977325 89.662918,283.668274 89.049377,285.663208 
z"/>
</svg>